<svg xmlns="http://www.w3.org/2000/svg" width="21.294" height="26.858" viewBox="0 0 21.294 26.858">
  <g id="그룹_1711" data-name="그룹 1711" transform="translate(-6100.424 -2354.681)">
    <path id="패스_726" data-name="패스 726" d="M6110.869,2355.458l-4.721,4.721-5.1,11.8,1.179,5.418,6.707,3.487,11.909-4.238.268-5.257-2.36-10.515Z" transform="translate(0 0)" fill="none" stroke="#fff" stroke-width="1.2"/>
    <path id="패스_727" data-name="패스 727" d="M6124.733,2356.052l1.3,3.365,6.158,1.841" transform="translate(-13.482 -0.338)" fill="none" stroke="#fff" stroke-width="1.2"/>
    <path id="패스_728" data-name="패스 728" d="M6113.574,2364.011v3.207l-6.634,11.395-4.1,1.778" transform="translate(-1.021 -4.869)" fill="none" stroke="#fff" stroke-width="1.2"/>
    <path id="패스_729" data-name="패스 729" d="M6112.573,2366.664v13.458l4.824,4.667,9.937-1.746" transform="translate(-6.559 -6.379)" fill="none" stroke="#fff" stroke-width="1.2"/>
    <path id="패스_730" data-name="패스 730" d="M6136.357,2380.5h-2.309l-6.221-9.047,3.017,9.776,2.666.191,2.572,4.317" transform="translate(-15.243 -9.106)" fill="none" stroke="#fff" stroke-width="1.2"/>
    <path id="패스_731" data-name="패스 731" d="M6141.621,2392.53l-.6.889" transform="translate(-22.752 -21.104)" fill="none" stroke="#fff" stroke-width="1.2"/>
    <path id="패스_732" data-name="패스 732" d="M6119.279,2402.912l2.063-2.508,4.856-6.253" transform="translate(-10.377 -22.027)" fill="none" stroke="#fff" stroke-width="1.2"/>
    <path id="패스_733" data-name="패스 733" d="M6134.432,2372.29l-6.824-.984" transform="translate(-15.118 -9.022)" fill="none" stroke="#fff" stroke-width="1.2"/>
  </g>
</svg>
