<svg xmlns="http://www.w3.org/2000/svg" width="848.6" height="1074.424" viewBox="0 0 848.6 1074.424">
  <g id="그룹_1855" data-name="그룹 1855" transform="translate(-6095.824 -2348.982)">
    <path id="패스_726" data-name="패스 726" d="M6511.281,2355.461l-197.266,197.266-212.969,493.133,49.281,226.414,280.234,145.7,497.625-177.094,11.2-219.656L6840.8,2581.859Z" transform="translate(0.004 -0.003)" fill="none" stroke="#000" stroke-width="10"/>
    <path id="패스_727" data-name="패스 727" d="M6124.734,2356.047l54.359,140.609,257.3,76.922" transform="translate(402.533 10.098)" fill="none" stroke="#000" stroke-width="10"/>
    <path id="패스_728" data-name="패스 728" d="M6551.156,2364.008v133.984l-277.187,476.125-171.125,74.3" transform="translate(30.496 145.382)" fill="none" stroke="#000" stroke-width="10"/>
    <path id="패스_729" data-name="패스 729" d="M6112.578,2366.664v562.375l201.578,194.984,415.2-72.969" transform="translate(195.842 190.477)" fill="none" stroke="#000" stroke-width="10"/>
    <path id="패스_730" data-name="패스 730" d="M6484.25,2749.477h-96.469l-259.953-378.023,126.047,408.508,111.406,7.984L6472.75,2968.32" transform="translate(455.148 271.901)" fill="none" stroke="#000" stroke-width="10"/>
    <path id="패스_731" data-name="패스 731" d="M6166.219,2392.523l-25.2,37.148" transform="translate(679.377 630.17)" fill="none" stroke="#000" stroke-width="10"/>
    <path id="패스_732" data-name="패스 732" d="M6119.266,2760.227l86.219-104.789,202.938-261.289" transform="translate(309.854 657.727)" fill="none" stroke="#000" stroke-width="10"/>
    <path id="패스_733" data-name="패스 733" d="M6412.75,2412.414,6127.594,2371.3" transform="translate(451.401 269.404)" fill="none" stroke="#000" stroke-width="10"/>
  </g>
</svg>
